<svg width="194" height="63" viewBox="0 0 194 63" fill="none" xmlns="http://www.w3.org/2000/svg">
<path fill-rule="evenodd" clip-rule="evenodd" d="M105.623 18.8881L83.5585 17.8484L93.0655 30.0169C90.3104 29.9924 87.8932 29.9575 86.5315 29.9366C86.0249 29.9297 85.6167 29.9227 85.5147 29.9227C83.0658 30.0447 79.9202 30.0064 77.2355 28.6214C73.9457 26.9226 72.1055 22.8581 72.957 19.1672C73.6889 15.9787 76.3629 13.268 79.6211 12.3015C79.9554 9.03625 81.6865 5.84408 84.3712 3.60797C88.5407 0.136584 94.4623 -0.941351 99.4587 0.862304C101.51 1.60206 103.438 2.78808 105.036 4.29169C105.841 5.05227 106.563 5.88947 107.178 6.78258C107.453 7.18369 107.71 7.59545 107.942 8.01399L105.623 18.8881Z" fill="#4B33FF"/>
<path fill-rule="evenodd" clip-rule="evenodd" d="M116.089 28.6734C113.493 30.4999 110.303 30.8544 107.525 30.9604C105.72 31.0262 103.202 31.0518 100.54 31.0518C99.8117 31.0518 99.0695 31.048 98.3309 31.0443L91.3811 21.7288L109.424 22.6055L112.118 9.31543C113.236 9.62227 114.323 10.1082 115.319 10.7547C117.295 12.0371 118.836 13.9001 119.655 16.0079C121.393 20.4722 119.828 26.0359 116.089 28.6734Z" fill="#4B33FF"/>
<path fill-rule="evenodd" clip-rule="evenodd" d="M12.4705 58.878L0 48.251V62.2599H2.28568V53.1347L12.4904 61.8203L22.7356 53.1347V62.2599H25.0213V48.251L12.4705 58.878Z" fill="#4B33FF"/>
<path fill-rule="evenodd" clip-rule="evenodd" d="M27.5237 62.2599H30.0258V48.251H27.5237V62.2599Z" fill="#4B33FF"/>
<path fill-rule="evenodd" clip-rule="evenodd" d="M58.87 48.0117C60.4768 48.0117 61.6418 48.742 62.365 49.7773C62.8268 50.4065 63.0682 50.9141 63.0882 51.3201C63.1082 51.7464 63.1287 51.9696 63.1287 52.0509C63.1287 53.3902 62.5054 54.6897 61.2 55.5624C60.5373 56.0088 59.7541 56.232 58.8495 56.232H57.0018C57.1623 56.3946 58.4282 57.8764 59.6532 59.3379L62.1041 62.2201H59.3923C58.3478 61.0631 57.3837 59.9465 56.4396 58.891L52.0805 54.0195H59.3118C60.2759 53.8776 61.0796 53.1064 61.0796 52.1317C61.0796 51.056 60.075 50.2444 59.051 50.2444H48.5651L46.5564 48.0117H58.87ZM38.9636 48.0325H43.8045L45.8131 50.245H38.9436C36.5531 50.245 34.464 51.9298 33.9823 54.1221L33.9218 54.4059C33.8613 54.6297 33.8413 54.8524 33.8213 55.1569C33.8213 57.6942 36.0109 60.0486 38.9031 60.0486H39.7872C41.9768 60.0486 47.7212 60.0082 51.8994 60.0082H54.6717L56.6803 62.2207H38.9836C35.0063 62.2207 31.5913 59.0946 31.5913 55.116C31.5913 51.1379 35.0468 48.0325 38.9636 48.0325Z" fill="#4B33FF"/>
<mask id="mask0_259_2438" style="mask-type:alpha" maskUnits="userSpaceOnUse" x="64" y="48" width="26" height="15">
<path fill-rule="evenodd" clip-rule="evenodd" d="M64.9304 48.0117H89.9784V62.2605H64.9304V48.0117Z" fill="white"/>
</mask>
<g mask="url(#mask0_259_2438)">
<path fill-rule="evenodd" clip-rule="evenodd" d="M68.867 60.0076H86.0015C86.9451 60.0076 87.6888 59.2566 87.6888 58.4445V51.7873C87.6888 50.9545 86.9451 50.2444 86.0015 50.2444H68.867C67.923 50.2444 67.1798 50.9545 67.1798 51.7873V58.4445C67.1798 59.2566 67.923 60.0076 68.867 60.0076ZM68.8869 48.0117H86.0214C88.191 48.0117 89.9782 49.6965 89.9782 51.8075V58.4647C89.9782 60.5757 88.191 62.2605 86.0214 62.2605H68.8869C66.7179 62.2605 64.9302 60.5757 64.9302 58.4647V51.8075C64.9302 49.6965 66.7179 48.0117 68.8869 48.0117Z" fill="#4B33FF"/>
</g>
<mask id="mask1_259_2438" style="mask-type:alpha" maskUnits="userSpaceOnUse" x="91" y="47" width="42" height="16">
<path fill-rule="evenodd" clip-rule="evenodd" d="M91.7815 47.9102H132.277V62.1796H91.7815V47.9102Z" fill="white"/>
</mask>
<g mask="url(#mask1_259_2438)">
<path fill-rule="evenodd" clip-rule="evenodd" d="M118.055 50.1227C118.919 49.1687 119.602 48.3975 120.064 47.9102H132.277V50.1227H118.055ZM112.611 56.1719L114.62 53.9594H131.031V56.1719H112.611ZM107.188 62.1595L109.197 59.9263H132.257V62.1595H107.188ZM96.0399 48.0115H116.81L114.801 50.2442H96.0399C94.9554 50.2442 94.0912 51.0563 94.0912 52.1113C94.0912 53.1466 94.9554 53.9996 96.0399 53.9996H102.287L102.307 53.9587C104.497 53.9587 106.525 55.6435 106.525 58.059C106.525 60.4134 104.597 62.1795 102.267 62.1795H91.8017V59.967H102.267C103.352 59.967 104.215 59.1145 104.215 58.0792C104.215 57.0237 103.352 56.2121 102.307 56.2121H95.9999C93.8304 56.2121 91.7812 54.4259 91.7812 52.1522V52.0709C91.7812 49.8791 93.7099 48.0115 96.0399 48.0115Z" fill="#4B33FF"/>
</g>
<path fill-rule="evenodd" clip-rule="evenodd" d="M141.45 48.0107H159.146V50.2435H141.45H141.329C139.14 50.2435 137.051 51.8469 136.548 54.0594L136.488 54.3433C136.428 54.5665 136.408 54.7902 136.388 55.0942C136.388 57.632 138.577 59.9864 141.47 59.9864H159.166V62.1989H141.47C137.493 62.1989 134.078 59.0728 134.078 55.0942C134.078 51.1161 137.533 48.0107 141.45 48.0107Z" fill="#4B33FF"/>
<path fill-rule="evenodd" clip-rule="evenodd" d="M161.794 60.21C162.356 60.21 162.858 60.6968 162.858 61.2448C162.858 61.7932 162.356 62.2397 161.794 62.2397C161.232 62.2397 160.769 61.7932 160.769 61.2448C160.769 60.6968 161.232 60.21 161.794 60.21Z" fill="#4B33FF"/>
<path fill-rule="evenodd" clip-rule="evenodd" d="M177.12 48.0322C178.546 49.5544 186.842 58.7494 189.975 62.2406H186.922C186.822 62.1391 179.41 53.9587 177.541 51.8886L177.12 51.422L169.346 60.0281H181.82L183.829 62.2406H164.264L177.12 48.0322Z" fill="#4B33FF"/>
<path fill-rule="evenodd" clip-rule="evenodd" d="M191.376 62.2191H193.686V48.0107H191.376V62.2191Z" fill="#4B33FF"/>
</svg>
