<svg width="14" height="18" viewBox="0 0 14 18" fill="none" xmlns="http://www.w3.org/2000/svg">
<path fill-rule="evenodd" clip-rule="evenodd" d="M6.49315 0.0118952C5.7361 0.104935 5.0112 0.366359 4.37961 0.77415C4.02848 1.00089 3.38622 1.62086 3.15132 1.95981C2.81647 2.44306 2.58839 2.95071 2.44019 3.54271C2.37259 3.81269 2.36374 3.98248 2.34902 5.2927L2.33273 6.74369H1.94264C1.70996 6.74369 1.46614 6.76543 1.33838 6.79755C0.709862 6.95559 0.225753 7.42441 0.0611522 8.03439C-0.0205468 8.33711 -0.0205468 16.4065 0.0611522 16.7092C0.225753 17.3192 0.709862 17.788 1.33838 17.946C1.52609 17.9932 2.22643 17.9999 7.00331 17.9999C13.002 17.9999 12.6487 18.0124 13.0935 17.7835C13.5121 17.5682 13.8725 17.0906 13.9626 16.6319C13.9866 16.5099 13.9998 14.9832 13.9998 12.3392C13.9998 7.87378 14.0077 8.05511 13.7955 7.65076C13.6653 7.40278 13.3488 7.09137 13.0935 6.96002C12.7847 6.8011 12.5115 6.74369 12.064 6.74369H11.6739L11.6576 5.2927C11.6429 3.98248 11.634 3.81269 11.5664 3.54271C11.3405 2.64018 10.9476 1.95837 10.2876 1.32331C9.61087 0.672106 8.90352 0.293441 7.9872 0.0917789C7.68299 0.0248398 6.78055 -0.0234211 6.49315 0.0118952ZM7.62367 1.55241C7.96672 1.62262 8.4071 1.79551 8.67614 1.96562C9.38435 2.41337 9.91204 3.16841 10.0612 3.94737C10.085 4.07158 10.1007 4.66879 10.1007 5.44867V6.74369H7.00331H3.90589L3.90651 5.4334C3.9072 4.00253 3.91948 3.88504 4.12034 3.38358C4.48573 2.47137 5.34513 1.77131 6.36561 1.55456C6.65585 1.49293 7.32734 1.49177 7.62367 1.55241ZM7.53552 9.84393C8.07568 10.0379 8.4431 10.4745 8.53628 11.033C8.62133 11.5428 8.38596 12.1007 7.95061 12.4212L7.77176 12.5529L7.76105 13.5322L7.75034 14.5116L7.63941 14.664C7.28649 15.149 6.52689 15.0815 6.29448 14.5445C6.24838 14.4381 6.23807 14.2441 6.23807 13.4847V12.5552L6.05313 12.4196C5.62357 12.1044 5.38562 11.5409 5.46958 11.0377C5.60196 10.2441 6.3229 9.68884 7.13085 9.75831C7.2511 9.76865 7.4332 9.80717 7.53552 9.84393Z" fill="#4B33FF"/>
</svg>
