<svg width="18" height="18" viewBox="0 0 18 18" fill="none" xmlns="http://www.w3.org/2000/svg">
<path fill-rule="evenodd" clip-rule="evenodd" d="M8.365 0.00883509C8.29717 0.0167951 8.09104 0.0396185 7.90693 0.059589C6.74436 0.185681 5.45695 0.621721 4.4181 1.2413C3.09595 2.0298 2.02133 3.10394 1.23248 4.42552C0.617709 5.45543 0.209386 6.65228 0.0427862 7.91282C-0.0142621 8.34438 -0.0142621 9.66497 0.0427862 10.0965C0.209386 11.3571 0.617709 12.5539 1.23248 13.5838C2.02133 14.9054 3.09595 15.9796 4.4181 16.7681C5.44846 17.3826 6.64584 17.7907 7.90693 17.9572C8.33868 18.0143 9.65985 18.0143 10.0916 17.9572C12.2857 17.6675 14.1456 16.7042 15.6634 15.0715C16.5031 14.1682 17.1601 13.0447 17.5633 11.8224C17.8811 10.8589 18 10.0917 18 9.00468C18 8.20051 17.966 7.84523 17.8216 7.13795C17.3265 4.71292 15.7678 2.54579 13.5804 1.2413C12.5606 0.633063 11.3444 0.216289 10.1268 0.0577223C9.81781 0.0174995 8.58347 -0.0167708 8.365 0.00883509ZM9.79209 3.96651C10.6615 4.19337 11.4412 4.83173 11.8376 5.64104C12.083 6.14238 12.1466 6.42838 12.1466 7.03228C12.1466 7.44768 12.1322 7.59558 12.0697 7.82476C11.8288 8.7072 11.2004 9.47266 10.3911 9.86911C10.0715 10.0257 9.60646 10.167 9.41058 10.167C9.20131 10.167 9.348 10.2037 9.76218 10.2549C11.629 10.4859 13.2666 11.5021 14.3001 13.0708C14.5739 13.4863 14.9316 14.2281 14.9025 14.3198C14.8903 14.3582 14.7197 14.5424 14.5234 14.7288C13.3265 15.8664 11.8875 16.5877 10.2678 16.862C9.86951 16.9294 9.66305 16.9425 8.99926 16.9425C8.33547 16.9425 8.12902 16.9294 7.73074 16.862C6.11101 16.5877 4.67198 15.8664 3.47509 14.7288C3.27882 14.5424 3.10828 14.3582 3.09605 14.3198C3.06695 14.2281 3.42463 13.4863 3.69842 13.0708C4.73192 11.5021 6.36955 10.4859 8.23635 10.2549C8.65053 10.2037 8.79722 10.167 8.58795 10.167C8.39206 10.167 7.92705 10.0257 7.60741 9.86911C6.79817 9.47266 6.16968 8.7072 5.92884 7.82476C5.86629 7.59558 5.85195 7.44768 5.85195 7.03228C5.85195 6.42827 5.91548 6.14224 6.16105 5.64104C6.59718 4.75086 7.45093 4.10057 8.4261 3.91572C8.79429 3.84595 9.419 3.86916 9.79209 3.96651Z" fill="#4B33FF"/>
</svg>
